<svg width="286" height="87" viewBox="0 0 286 87" fill="none" xmlns="http://www.w3.org/2000/svg">
<path fill-rule="evenodd" clip-rule="evenodd" d="M6.34552 36.3359C4.45847 36.1392 2.57388 35.9274 0.689523 35.7039C0.321362 35.6599 0.0245964 36.0593 0.0271607 36.5957C0.029725 37.132 0.33071 37.6032 0.698871 37.6472C2.39505 37.846 4.09139 38.0371 5.78655 38.2202C5.8832 38.3223 6.07621 38.4759 6.40319 38.5827C16.5908 41.8163 27.5016 40.8563 37.8403 40.652C47.5476 41.1234 57.2549 41.3851 66.9622 41.5343C65.8075 41.6034 64.6532 41.6687 63.4979 41.7261C63.2576 41.7391 62.6349 41.7756 62.5498 41.7998C62.0633 41.9529 62.064 42.5665 62.0693 42.7228C62.072 42.8009 62.1299 43.6652 62.7941 43.7447C69.9292 44.5887 77.0359 44.2319 84.1135 43.9593C86.7462 43.8573 89.3762 43.747 92.0076 43.6292C92.9225 43.5848 95.3066 43.6108 95.6339 43.5468C95.9857 43.4753 96.1158 43.1599 96.163 42.9117C101.877 42.8626 107.598 42.8769 113.323 42.9499C114.445 43.0383 115.566 43.1303 116.687 43.2224C128.904 44.2424 141.119 45.3282 153.334 46.2702C146.539 46.1836 139.727 46.1332 132.948 46.2746C131.559 46.3035 130.174 46.3873 128.786 46.4319C128.028 46.4527 126.063 46.3357 125.79 46.4439C125.382 46.6106 125.327 47.0672 125.321 47.2954C125.318 47.4347 125.366 48.2157 126.064 48.4639C139.001 53.0835 152.134 54.8944 165.194 56.9256C168.63 57.4588 172.065 58.0115 175.499 58.5794C167.314 58.1293 159.032 57.0334 150.849 56.0905C150.773 55.9842 150.664 55.8801 150.51 55.8031C150.284 55.6864 149.586 55.5042 148.318 55.2664C148.045 55.2155 147.803 55.4107 147.691 55.7332C145.747 55.5227 143.809 55.3249 141.88 55.152C135.563 54.5848 129.254 54.3451 122.94 53.8209L121.51 53.6835L121.212 53.6555C120.117 53.5407 118.777 53.3916 117.887 53.2926C117.373 53.2313 116.037 53.1178 115.852 53.1093C115.296 53.0912 115.217 53.835 115.214 53.8694C115.213 53.8885 115.245 54.9853 116.008 55.074C116.519 55.1347 118.445 55.3266 121.146 55.5897C121.825 55.6599 122.42 55.7197 122.775 55.7497L123.048 55.7734C131.683 56.5962 145.519 57.8407 149.43 57.8694C162.182 59.3039 175.205 61.2277 187.753 60.6272C188.164 60.6049 188.341 60.4256 188.376 60.385C188.565 60.1496 188.599 59.8681 188.586 59.6212C188.578 59.4644 188.51 58.8275 187.984 58.6399C187.615 58.5064 184.967 58.2215 183.947 58.0496C177.705 56.9982 171.462 55.9583 165.219 54.9881C153.961 53.2361 142.647 51.657 131.452 48.277C131.995 48.2542 132.539 48.2353 133.084 48.2242C139.958 48.0796 146.865 48.1309 153.753 48.2219C175.146 48.5035 197.113 52.1692 218.38 51.2253C218.815 51.2071 219.006 51.0304 219.043 50.9901C219.244 50.7528 219.278 50.4596 219.264 50.2087C219.256 50.0558 219.183 49.4103 218.647 49.2249C218.206 49.0712 215.041 48.7477 213.821 48.5532C208.95 47.7766 204.075 46.9955 199.203 46.3858C191.161 45.3816 183.105 44.5226 175.054 43.8277C174.362 43.5454 173.645 43.2783 172.906 43.0267C178.331 43.3239 183.754 43.6869 189.178 44.1392C211.41 45.9827 233.648 48.3515 255.888 50.9576C265.099 52.0387 274.458 53.8792 283.659 54.3917C283.986 54.409 284.71 54.5649 285.066 54.5834C285.269 54.5951 285.417 54.5545 285.487 54.52C285.78 54.3684 285.869 54.0614 285.895 53.8175C285.918 53.6272 285.955 53.0006 285.399 52.6019C273.433 44.0255 254.76 45.0664 242.475 43.3123C192.311 36.1508 142.227 34.0475 92.2679 33.9191C72.2935 33.8662 52.3702 33.8414 32.4579 34.7157C25.3916 35.0252 18.3121 35.1655 11.2935 35.988C10.3775 36.0982 8.43628 36.129 7.19432 36.2258C6.86001 36.2537 6.56935 36.2929 6.34552 36.3359ZM281.636 52.3152C269.878 46.0345 253.541 46.8331 242.462 45.2518C192.341 38.0976 142.299 35.9939 92.383 35.865C72.4227 35.8145 52.5135 35.7884 32.6149 36.6651C27.5529 36.8847 22.4837 37.0215 17.4358 37.3834C24.2008 37.9424 30.9655 38.3732 37.7376 38.7043C39.1446 38.6747 40.5423 38.659 41.9259 38.672C58.9201 38.8215 75.9531 39.0088 92.9989 39.7807C98.6319 39.7914 104.265 39.7903 109.903 39.7941C120.803 39.2515 135.681 38.4387 149.403 39.1937C154.123 39.4549 158.707 39.9025 162.949 40.6134C171.681 40.9634 180.408 41.4681 189.136 42.1942C211.379 44.0356 233.628 46.4102 255.88 49.0184C264.419 50.0186 273.082 51.6774 281.636 52.3152ZM174.966 45.7618C169.807 45.3203 164.652 44.9491 159.505 44.6494C157.215 44.5191 154.924 44.3926 152.633 44.2738C153.885 44.3729 155.137 44.4681 156.388 44.5593C162.264 45.0001 168.153 45.4549 174.024 45.7319C174.316 45.7433 174.708 45.7874 175.147 45.8397L174.974 45.7671L174.966 45.7618ZM206.763 49.3843C204.244 49.005 201.725 48.6413 199.207 48.328C192.67 47.5132 186.125 46.79 179.58 46.1757C179.74 46.3353 179.826 46.4823 179.866 46.5746C179.983 46.8355 180.006 47.0841 179.986 47.3059C179.974 47.4435 179.942 47.6051 179.864 47.7549C188.85 48.4632 197.847 49.2006 206.763 49.3843ZM166.069 43.1272C165.081 42.9221 164.069 42.7324 163.037 42.5585C157.932 42.3553 152.828 42.1988 147.73 42.0822C151.632 42.2724 155.537 42.4787 159.44 42.7043C161.649 42.8321 163.858 42.9718 166.069 43.1272Z" fill="black"/>
</svg>
